<svg xmlns="http://www.w3.org/2000/svg" xmlns:xlink="http://www.w3.org/1999/xlink" width="512" zoomAndPan="magnify" viewBox="0 0 384 383.999986" height="512" preserveAspectRatio="xMidYMid meet" version="1.0"><defs><clipPath id="eda98ea041"><path d="M 1.832031 1.832031 L 382.167969 1.832031 L 382.167969 382.167969 L 1.832031 382.167969 Z M 1.832031 1.832031 " clip-rule="nonzero"/></clipPath><clipPath id="38d331cad5"><path d="M 192 1.832031 C 86.972656 1.832031 1.832031 86.972656 1.832031 192 C 1.832031 297.027344 86.972656 382.167969 192 382.167969 C 297.027344 382.167969 382.167969 297.027344 382.167969 192 C 382.167969 86.972656 297.027344 1.832031 192 1.832031 Z M 192 1.832031 " clip-rule="nonzero"/></clipPath><clipPath id="7b86046d7c"><path d="M 191 67 L 298 67 L 298 182 L 191 182 Z M 191 67 " clip-rule="nonzero"/></clipPath><clipPath id="4e22e00501"><path d="M 235.683594 50.410156 L 314.15625 95.226562 L 257.539062 194.367188 L 179.066406 149.546875 Z M 235.683594 50.410156 " clip-rule="nonzero"/></clipPath><clipPath id="765d1dee3e"><path d="M 260.527344 67.683594 C 265.339844 68.570312 270.453125 70.269531 274.941406 72.832031 C 279.429688 75.394531 283.300781 78.652344 286.476562 82.332031 C 286.539062 82.421875 286.621094 82.472656 286.683594 82.5625 C 298.421875 96.71875 300.960938 117.839844 291.273438 135.296875 L 274.40625 164.832031 C 269.933594 172.664062 262.53125 178.398438 253.828125 180.773438 C 245.125 183.148438 235.835938 181.972656 228.003906 177.496094 L 208.578125 166.402344 C 192.277344 157.09375 186.613281 136.335938 195.921875 120.035156 L 212.777344 90.523438 C 222.964844 73.175781 242.277344 64.535156 260.527344 67.683594 Z M 260.527344 67.683594 " clip-rule="nonzero"/></clipPath><clipPath id="9f5bc4cbc6"><path d="M 177 49 L 271 49 L 271 170 L 177 170 Z M 177 49 " clip-rule="nonzero"/></clipPath><clipPath id="75f223728d"><path d="M 234.621094 49.585938 L 270.90625 70.308594 L 214.191406 169.609375 L 177.90625 148.886719 Z M 234.621094 49.585938 " clip-rule="nonzero"/></clipPath><clipPath id="a98867203b"><path d="M 234.621094 49.585938 L 270.90625 70.308594 L 214.191406 169.609375 L 177.90625 148.886719 Z M 234.621094 49.585938 " clip-rule="nonzero"/></clipPath><clipPath id="7c549995c9"><path d="M 86 67 L 193 67 L 193 183 L 86 183 Z M 86 67 " clip-rule="nonzero"/></clipPath><clipPath id="4e48a6e0de"><path d="M 69.945312 95.921875 L 148.371094 51.019531 L 205.097656 150.097656 L 126.671875 195 Z M 69.945312 95.921875 " clip-rule="nonzero"/></clipPath><clipPath id="e65174de88"><path d="M 97.433594 83.273438 C 100.636719 79.574219 104.695312 76.027344 109.179688 73.460938 C 113.667969 70.890625 118.433594 69.207031 123.21875 68.335938 C 123.328125 68.328125 123.410156 68.28125 123.519531 68.277344 C 141.675781 65.335938 161.167969 73.859375 171.296875 91.0625 L 188.195312 120.582031 C 192.679688 128.410156 193.867188 137.699219 191.5 146.402344 C 189.136719 155.105469 183.40625 162.515625 175.578125 166.996094 L 156.167969 178.113281 C 139.875 187.4375 119.109375 181.792969 109.785156 165.503906 L 92.898438 136.007812 C 83.113281 118.433594 85.460938 97.40625 97.433594 83.273438 Z M 97.433594 83.273438 " clip-rule="nonzero"/></clipPath><clipPath id="774bae4ea3"><path d="M 113 50 L 206 50 L 206 171 L 113 171 Z M 113 50 " clip-rule="nonzero"/></clipPath><clipPath id="8098100c57"><path d="M 113.125 71.039062 L 149.164062 50.40625 L 205.980469 149.644531 L 169.941406 170.277344 Z M 113.125 71.039062 " clip-rule="nonzero"/></clipPath><clipPath id="5d492abbb5"><path d="M 113.125 71.039062 L 149.164062 50.40625 L 205.980469 149.644531 L 169.941406 170.277344 Z M 113.125 71.039062 " clip-rule="nonzero"/></clipPath><clipPath id="caf30e6ca1"><path d="M 69.75 141.179688 L 155.132812 141.179688 L 155.132812 226.5625 L 69.75 226.5625 Z M 69.75 141.179688 " clip-rule="nonzero"/></clipPath><clipPath id="0e705359a7"><path d="M 112.441406 141.179688 C 88.863281 141.179688 69.75 160.292969 69.75 183.871094 C 69.75 207.449219 88.863281 226.5625 112.441406 226.5625 C 136.019531 226.5625 155.132812 207.449219 155.132812 183.871094 C 155.132812 160.292969 136.019531 141.179688 112.441406 141.179688 Z M 112.441406 141.179688 " clip-rule="nonzero"/></clipPath><clipPath id="0a11f33b98"><path d="M 228.867188 140.898438 L 314.25 140.898438 L 314.25 226.28125 L 228.867188 226.28125 Z M 228.867188 140.898438 " clip-rule="nonzero"/></clipPath><clipPath id="c1a25fb506"><path d="M 271.558594 140.898438 C 247.980469 140.898438 228.867188 160.011719 228.867188 183.589844 C 228.867188 207.167969 247.980469 226.28125 271.558594 226.28125 C 295.136719 226.28125 314.25 207.167969 314.25 183.589844 C 314.25 160.011719 295.136719 140.898438 271.558594 140.898438 Z M 271.558594 140.898438 " clip-rule="nonzero"/></clipPath><clipPath id="c4ac6c83cf"><path d="M 95.589844 122.304688 L 288.515625 122.304688 L 288.515625 315.230469 L 95.589844 315.230469 Z M 95.589844 122.304688 " clip-rule="nonzero"/></clipPath><clipPath id="22dac1266b"><path d="M 192.054688 122.304688 C 138.777344 122.304688 95.589844 165.492188 95.589844 218.769531 C 95.589844 272.042969 138.777344 315.230469 192.054688 315.230469 C 245.328125 315.230469 288.515625 272.042969 288.515625 218.769531 C 288.515625 165.492188 245.328125 122.304688 192.054688 122.304688 Z M 192.054688 122.304688 " clip-rule="nonzero"/></clipPath><clipPath id="6b2fd6f219"><path d="M 95.589844 122.304688 L 288.402344 122.304688 L 288.402344 315.117188 L 95.589844 315.117188 Z M 95.589844 122.304688 " clip-rule="nonzero"/></clipPath><clipPath id="72e98203b2"><path d="M 192.050781 122.304688 C 138.777344 122.304688 95.589844 165.492188 95.589844 218.765625 C 95.589844 272.039062 138.777344 315.226562 192.050781 315.226562 C 245.324219 315.226562 288.511719 272.039062 288.511719 218.765625 C 288.511719 165.492188 245.324219 122.304688 192.050781 122.304688 Z M 192.050781 122.304688 " clip-rule="nonzero"/></clipPath><clipPath id="789d247a25"><path d="M 134.800781 171.816406 L 249.316406 171.816406 L 249.316406 334.410156 L 134.800781 334.410156 Z M 134.800781 171.816406 " clip-rule="nonzero"/></clipPath><clipPath id="de8c91e6b9"><path d="M 134.800781 221.589844 C 134.800781 194.097656 160.433594 171.816406 192.058594 171.816406 C 223.683594 171.816406 249.316406 194.097656 249.316406 221.589844 L 249.316406 284.636719 C 249.316406 312.125 223.683594 334.410156 192.058594 334.410156 C 160.433594 334.410156 134.800781 312.125 134.800781 284.636719 Z M 134.800781 221.589844 " clip-rule="nonzero"/></clipPath><clipPath id="42a745ceca"><path d="M 238.640625 150.832031 L 304.714844 150.832031 L 304.714844 216.90625 L 238.640625 216.90625 Z M 238.640625 150.832031 " clip-rule="nonzero"/></clipPath><clipPath id="94399ee02d"><path d="M 271.675781 150.832031 C 253.429688 150.832031 238.640625 165.625 238.640625 183.871094 C 238.640625 202.117188 253.429688 216.90625 271.675781 216.90625 C 289.921875 216.90625 304.714844 202.117188 304.714844 183.871094 C 304.714844 165.625 289.921875 150.832031 271.675781 150.832031 Z M 271.675781 150.832031 " clip-rule="nonzero"/></clipPath><clipPath id="a0b9cf6074"><path d="M 247.574219 160.246094 L 295.777344 160.246094 L 295.777344 208.449219 L 247.574219 208.449219 Z M 247.574219 160.246094 " clip-rule="nonzero"/></clipPath><clipPath id="99257d0389"><path d="M 271.675781 160.246094 C 258.367188 160.246094 247.574219 171.035156 247.574219 184.347656 C 247.574219 197.65625 258.367188 208.449219 271.675781 208.449219 C 284.988281 208.449219 295.777344 197.65625 295.777344 184.347656 C 295.777344 171.035156 284.988281 160.246094 271.675781 160.246094 Z M 271.675781 160.246094 " clip-rule="nonzero"/></clipPath><clipPath id="dbb45c8d3c"><path d="M 270.722656 159.292969 L 295.777344 159.292969 L 295.777344 184.347656 L 270.722656 184.347656 Z M 270.722656 159.292969 " clip-rule="nonzero"/></clipPath><clipPath id="23fbdf039c"><path d="M 283.25 159.292969 C 276.332031 159.292969 270.722656 164.902344 270.722656 171.820312 C 270.722656 178.738281 276.332031 184.347656 283.25 184.347656 C 290.167969 184.347656 295.777344 178.738281 295.777344 171.820312 C 295.777344 164.902344 290.167969 159.292969 283.25 159.292969 Z M 283.25 159.292969 " clip-rule="nonzero"/></clipPath><clipPath id="11d23f85f7"><path d="M 79.402344 150.550781 L 145.476562 150.550781 L 145.476562 216.628906 L 79.402344 216.628906 Z M 79.402344 150.550781 " clip-rule="nonzero"/></clipPath><clipPath id="5265ceddbd"><path d="M 112.441406 150.550781 C 94.195312 150.550781 79.402344 165.34375 79.402344 183.589844 C 79.402344 201.835938 94.195312 216.628906 112.441406 216.628906 C 130.6875 216.628906 145.476562 201.835938 145.476562 183.589844 C 145.476562 165.34375 130.6875 150.550781 112.441406 150.550781 Z M 112.441406 150.550781 " clip-rule="nonzero"/></clipPath><clipPath id="b924d476c5"><path d="M 85.644531 159.488281 L 133.847656 159.488281 L 133.847656 207.691406 L 85.644531 207.691406 Z M 85.644531 159.488281 " clip-rule="nonzero"/></clipPath><clipPath id="7ee40cf42a"><path d="M 109.746094 159.488281 C 96.433594 159.488281 85.644531 170.277344 85.644531 183.589844 C 85.644531 196.902344 96.433594 207.691406 109.746094 207.691406 C 123.054688 207.691406 133.847656 196.902344 133.847656 183.589844 C 133.847656 170.277344 123.054688 159.488281 109.746094 159.488281 Z M 109.746094 159.488281 " clip-rule="nonzero"/></clipPath><clipPath id="d43b3b9cf3"><path d="M 108.792969 159.488281 L 133.847656 159.488281 L 133.847656 184.542969 L 108.792969 184.542969 Z M 108.792969 159.488281 " clip-rule="nonzero"/></clipPath><clipPath id="8173825304"><path d="M 121.320312 159.488281 C 114.402344 159.488281 108.792969 165.097656 108.792969 172.015625 C 108.792969 178.933594 114.402344 184.542969 121.320312 184.542969 C 128.238281 184.542969 133.847656 178.933594 133.847656 172.015625 C 133.847656 165.097656 128.238281 159.488281 121.320312 159.488281 Z M 121.320312 159.488281 " clip-rule="nonzero"/></clipPath><clipPath id="3c9a9e79c2"><path d="M 184.746094 315.230469 L 199.207031 315.230469 L 199.207031 319.085938 L 184.746094 319.085938 Z M 184.746094 315.230469 " clip-rule="nonzero"/></clipPath><clipPath id="81fcfd2150"><path d="M 199.207031 317.15625 C 199.207031 318.222656 198.34375 319.085938 197.28125 319.085938 L 186.671875 319.085938 C 185.609375 319.085938 184.746094 318.222656 184.746094 317.15625 C 184.746094 316.09375 185.609375 315.230469 186.671875 315.230469 L 197.28125 315.230469 C 198.34375 315.230469 199.207031 316.09375 199.207031 317.15625 Z M 199.207031 317.15625 " clip-rule="nonzero"/></clipPath><clipPath id="cc2c614f87"><path d="M 161.59375 279.628906 L 195.269531 279.628906 L 195.269531 313.300781 L 161.59375 313.300781 Z M 161.59375 279.628906 " clip-rule="nonzero"/></clipPath><clipPath id="43c023b56b"><path d="M 195.269531 296.464844 C 195.269531 305.765625 187.730469 313.300781 178.429688 313.300781 C 169.132812 313.300781 161.59375 305.765625 161.59375 296.464844 C 161.59375 287.167969 169.132812 279.628906 178.429688 279.628906 C 187.730469 279.628906 195.269531 287.167969 195.269531 296.464844 L 188.53125 296.464844 C 188.53125 290.886719 184.011719 286.363281 178.429688 286.363281 C 172.851562 286.363281 168.328125 290.886719 168.328125 296.464844 C 168.328125 302.042969 172.851562 306.566406 178.429688 306.566406 C 184.011719 306.566406 188.53125 302.042969 188.53125 296.464844 Z M 195.269531 296.464844 " clip-rule="nonzero"/></clipPath><clipPath id="585b311c3e"><path d="M 162 296.070312 L 195 296.070312 L 195 313.300781 L 162 313.300781 Z M 162 296.070312 " clip-rule="nonzero"/></clipPath><clipPath id="e84e610ef8"><path d="M 194.734375 300.675781 C 192.8125 308.109375 186.109375 313.300781 178.429688 313.300781 C 170.753906 313.300781 164.046875 308.109375 162.128906 300.675781 C 161.664062 298.875 162.746094 297.039062 164.546875 296.574219 C 166.347656 296.105469 168.183594 297.191406 168.648438 298.992188 C 169.800781 303.453125 173.824219 306.566406 178.429688 306.566406 C 183.039062 306.566406 187.058594 303.453125 188.210938 298.992188 C 188.675781 297.191406 190.515625 296.105469 192.316406 296.574219 C 194.117188 297.039062 195.199219 298.875 194.734375 300.675781 Z M 194.734375 300.675781 " clip-rule="nonzero"/></clipPath><clipPath id="f45d34cec8"><path d="M 189.15625 279.628906 L 222.832031 279.628906 L 222.832031 313.300781 L 189.15625 313.300781 Z M 189.15625 279.628906 " clip-rule="nonzero"/></clipPath><clipPath id="49fc12aeef"><path d="M 222.832031 296.464844 C 222.832031 305.765625 215.292969 313.300781 205.996094 313.300781 C 196.695312 313.300781 189.15625 305.765625 189.15625 296.464844 C 189.15625 287.167969 196.695312 279.628906 205.996094 279.628906 C 215.292969 279.628906 222.832031 287.167969 222.832031 296.464844 L 216.097656 296.464844 C 216.097656 290.886719 211.574219 286.363281 205.996094 286.363281 C 200.414062 286.363281 195.894531 290.886719 195.894531 296.464844 C 195.894531 302.042969 200.414062 306.566406 205.996094 306.566406 C 211.574219 306.566406 216.097656 302.042969 216.097656 296.464844 Z M 222.832031 296.464844 " clip-rule="nonzero"/></clipPath><clipPath id="ae94fbcf18"><path d="M 189.15625 296.070312 L 222.832031 296.070312 L 222.832031 313.300781 L 189.15625 313.300781 Z M 189.15625 296.070312 " clip-rule="nonzero"/></clipPath><clipPath id="0295361c3e"><path d="M 222.296875 300.675781 C 220.378906 308.109375 213.671875 313.300781 205.996094 313.300781 C 198.316406 313.300781 191.613281 308.109375 189.691406 300.675781 C 189.226562 298.875 190.308594 297.039062 192.109375 296.574219 C 193.910156 296.105469 195.75 297.191406 196.214844 298.992188 C 197.363281 303.453125 201.386719 306.566406 205.996094 306.566406 C 210.601562 306.566406 214.625 303.453125 215.777344 298.992188 C 216.242188 297.191406 218.078125 296.105469 219.878906 296.574219 C 221.679688 297.039062 222.761719 298.875 222.296875 300.675781 Z M 222.296875 300.675781 " clip-rule="nonzero"/></clipPath><clipPath id="a12e4d33c1"><path d="M 188.726562 264.371094 L 195.273438 264.371094 L 195.273438 301.886719 L 188.726562 301.886719 Z M 188.726562 264.371094 " clip-rule="nonzero"/></clipPath><clipPath id="bb665ad358"><path d="M 192 264.371094 C 193.808594 264.371094 195.273438 265.839844 195.273438 267.644531 L 195.273438 298.613281 C 195.273438 300.421875 193.808594 301.886719 192 301.886719 C 190.191406 301.886719 188.726562 300.421875 188.726562 298.613281 L 188.726562 267.644531 C 188.726562 265.839844 190.191406 264.371094 192 264.371094 Z M 192 264.371094 " clip-rule="nonzero"/></clipPath><clipPath id="25cb4bc274"><path d="M 175.15625 232.410156 L 208.832031 232.410156 L 208.832031 266.082031 L 175.15625 266.082031 Z M 175.15625 232.410156 " clip-rule="nonzero"/></clipPath><clipPath id="eea8ac7c6e"><path d="M 208.832031 249.246094 C 208.832031 258.546875 201.292969 266.082031 191.992188 266.082031 C 182.695312 266.082031 175.15625 258.546875 175.15625 249.246094 C 175.15625 239.949219 182.695312 232.410156 191.992188 232.410156 C 201.292969 232.410156 208.832031 239.949219 208.832031 249.246094 L 202.097656 249.246094 C 202.097656 243.667969 197.574219 239.144531 191.992188 239.144531 C 186.414062 239.144531 181.890625 243.667969 181.890625 249.246094 C 181.890625 254.824219 186.414062 259.347656 191.992188 259.347656 C 197.574219 259.347656 202.097656 254.824219 202.097656 249.246094 Z M 208.832031 249.246094 " clip-rule="nonzero"/></clipPath><clipPath id="79fef7c60a"><path d="M 175.15625 249 L 208.832031 249 L 208.832031 266.082031 L 175.15625 266.082031 Z M 175.15625 249 " clip-rule="nonzero"/></clipPath><clipPath id="b714fd5af6"><path d="M 208.296875 253.457031 C 206.375 260.890625 199.671875 266.082031 191.992188 266.082031 C 184.316406 266.082031 177.609375 260.890625 175.691406 253.457031 C 175.226562 251.65625 176.308594 249.816406 178.109375 249.351562 C 179.910156 248.886719 181.746094 249.972656 182.210938 251.773438 C 183.363281 256.230469 187.386719 259.347656 191.992188 259.347656 C 196.601562 259.347656 200.625 256.230469 201.773438 251.773438 C 202.238281 249.972656 204.078125 248.886719 205.878906 249.351562 C 207.679688 249.816406 208.761719 251.65625 208.296875 253.457031 Z M 208.296875 253.457031 " clip-rule="nonzero"/></clipPath></defs><g clip-path="url(#eda98ea041)"><g clip-path="url(#38d331cad5)"><path fill="#004225" d="M 1.832031 1.832031 L 382.167969 1.832031 L 382.167969 382.167969 L 1.832031 382.167969 Z M 1.832031 1.832031 " fill-opacity="1" fill-rule="nonzero"/></g></g><g clip-path="url(#7b86046d7c)"><g clip-path="url(#4e22e00501)"><g clip-path="url(#765d1dee3e)"><path fill="#ffb000" d="M 235.683594 50.410156 L 314.15625 95.226562 L 257.539062 194.367188 L 179.066406 149.546875 Z M 235.683594 50.410156 " fill-opacity="1" fill-rule="nonzero"/></g></g></g><g clip-path="url(#9f5bc4cbc6)"><g clip-path="url(#75f223728d)"><g clip-path="url(#a98867203b)"><path fill="#004225" d="M 234.621094 49.585938 L 270.90625 70.308594 L 214.191406 169.609375 L 177.90625 148.886719 Z M 234.621094 49.585938 " fill-opacity="1" fill-rule="nonzero"/></g></g></g><g clip-path="url(#7c549995c9)"><g clip-path="url(#4e48a6e0de)"><g clip-path="url(#e65174de88)"><path fill="#ffb000" d="M 69.945312 95.921875 L 148.371094 51.019531 L 205.097656 150.097656 L 126.671875 195 Z M 69.945312 95.921875 " fill-opacity="1" fill-rule="nonzero"/></g></g></g><g clip-path="url(#774bae4ea3)"><g clip-path="url(#8098100c57)"><g clip-path="url(#5d492abbb5)"><path fill="#004225" d="M 113.125 71.039062 L 149.164062 50.40625 L 205.980469 149.644531 L 169.941406 170.277344 Z M 113.125 71.039062 " fill-opacity="1" fill-rule="nonzero"/></g></g></g><g clip-path="url(#caf30e6ca1)"><g clip-path="url(#0e705359a7)"><path fill="#ffcf9d" d="M 69.75 141.179688 L 155.132812 141.179688 L 155.132812 226.5625 L 69.75 226.5625 Z M 69.75 141.179688 " fill-opacity="1" fill-rule="nonzero"/></g></g><g clip-path="url(#0a11f33b98)"><g clip-path="url(#c1a25fb506)"><path fill="#ffcf9d" d="M 228.867188 140.898438 L 314.25 140.898438 L 314.25 226.28125 L 228.867188 226.28125 Z M 228.867188 140.898438 " fill-opacity="1" fill-rule="nonzero"/></g></g><g clip-path="url(#c4ac6c83cf)"><g clip-path="url(#22dac1266b)"><path fill="#ffb000" d="M 95.589844 122.304688 L 288.515625 122.304688 L 288.515625 315.230469 L 95.589844 315.230469 Z M 95.589844 122.304688 " fill-opacity="1" fill-rule="nonzero"/></g></g><g clip-path="url(#6b2fd6f219)"><g clip-path="url(#72e98203b2)"><path stroke-linecap="butt" transform="matrix(0.333586, 0, 0, 0.333586, 95.590555, 122.305354)" fill="none" stroke-linejoin="miter" d="M 289.161066 -0.00199654 C 129.462042 -0.00199654 -0.00213163 129.462177 -0.00213163 289.161201 C -0.00213163 448.860224 129.462042 578.324398 289.161066 578.324398 C 448.860089 578.324398 578.324263 448.860224 578.324263 289.161201 C 578.324263 129.462177 448.860089 -0.00199654 289.161066 -0.00199654 Z M 289.161066 -0.00199654 " stroke="#ffcf9d" stroke-width="67.448776" stroke-opacity="1" stroke-miterlimit="4"/></g></g><g clip-path="url(#789d247a25)"><g clip-path="url(#de8c91e6b9)"><path fill="#ffcf9d" d="M 134.800781 334.410156 L 134.800781 171.816406 L 249.316406 171.816406 L 249.316406 334.410156 Z M 134.800781 334.410156 " fill-opacity="1" fill-rule="nonzero"/></g></g><g clip-path="url(#42a745ceca)"><g clip-path="url(#94399ee02d)"><path fill="#ffb000" d="M 238.640625 150.832031 L 304.714844 150.832031 L 304.714844 216.90625 L 238.640625 216.90625 Z M 238.640625 150.832031 " fill-opacity="1" fill-rule="nonzero"/></g></g><g clip-path="url(#a0b9cf6074)"><g clip-path="url(#99257d0389)"><path fill="#004225" d="M 247.574219 160.246094 L 295.777344 160.246094 L 295.777344 208.449219 L 247.574219 208.449219 Z M 247.574219 160.246094 " fill-opacity="1" fill-rule="nonzero"/></g></g><g clip-path="url(#dbb45c8d3c)"><g clip-path="url(#23fbdf039c)"><path fill="#ffcf9d" d="M 270.722656 159.292969 L 295.777344 159.292969 L 295.777344 184.347656 L 270.722656 184.347656 Z M 270.722656 159.292969 " fill-opacity="1" fill-rule="nonzero"/></g></g><g clip-path="url(#11d23f85f7)"><g clip-path="url(#5265ceddbd)"><path fill="#ffb000" d="M 79.402344 150.550781 L 145.476562 150.550781 L 145.476562 216.628906 L 79.402344 216.628906 Z M 79.402344 150.550781 " fill-opacity="1" fill-rule="nonzero"/></g></g><g clip-path="url(#b924d476c5)"><g clip-path="url(#7ee40cf42a)"><path fill="#004225" d="M 85.644531 159.488281 L 133.847656 159.488281 L 133.847656 207.691406 L 85.644531 207.691406 Z M 85.644531 159.488281 " fill-opacity="1" fill-rule="nonzero"/></g></g><g clip-path="url(#d43b3b9cf3)"><g clip-path="url(#8173825304)"><path fill="#ffcf9d" d="M 108.792969 159.488281 L 133.847656 159.488281 L 133.847656 184.542969 L 108.792969 184.542969 Z M 108.792969 159.488281 " fill-opacity="1" fill-rule="nonzero"/></g></g><g clip-path="url(#3c9a9e79c2)"><g clip-path="url(#81fcfd2150)"><path fill="#004225" d="M 199.207031 315.230469 L 199.207031 319.085938 L 184.746094 319.085938 L 184.746094 315.230469 Z M 199.207031 315.230469 " fill-opacity="1" fill-rule="nonzero"/></g></g><g clip-path="url(#cc2c614f87)"><g clip-path="url(#43c023b56b)"><path fill="#ffcf9d" d="M 195.269531 279.628906 L 195.269531 313.300781 L 161.59375 313.300781 L 161.59375 279.628906 Z M 195.269531 279.628906 " fill-opacity="1" fill-rule="nonzero"/></g></g><g clip-path="url(#585b311c3e)"><g clip-path="url(#e84e610ef8)"><path fill="#004225" d="M 195.269531 279.628906 L 195.269531 313.300781 L 161.59375 313.300781 L 161.59375 279.628906 Z M 195.269531 279.628906 " fill-opacity="1" fill-rule="nonzero"/></g></g><g clip-path="url(#f45d34cec8)"><g clip-path="url(#49fc12aeef)"><path fill="#ffcf9d" d="M 222.832031 279.628906 L 222.832031 313.300781 L 189.15625 313.300781 L 189.15625 279.628906 Z M 222.832031 279.628906 " fill-opacity="1" fill-rule="nonzero"/></g></g><g clip-path="url(#ae94fbcf18)"><g clip-path="url(#0295361c3e)"><path fill="#004225" d="M 222.832031 279.628906 L 222.832031 313.300781 L 189.15625 313.300781 L 189.15625 279.628906 Z M 222.832031 279.628906 " fill-opacity="1" fill-rule="nonzero"/></g></g><g clip-path="url(#a12e4d33c1)"><g clip-path="url(#bb665ad358)"><path fill="#004225" d="M 188.726562 264.371094 L 195.273438 264.371094 L 195.273438 301.886719 L 188.726562 301.886719 Z M 188.726562 264.371094 " fill-opacity="1" fill-rule="nonzero"/></g></g><g clip-path="url(#25cb4bc274)"><g clip-path="url(#eea8ac7c6e)"><path fill="#ffcf9d" d="M 208.832031 232.410156 L 208.832031 266.082031 L 175.15625 266.082031 L 175.15625 232.410156 Z M 208.832031 232.410156 " fill-opacity="1" fill-rule="nonzero"/></g></g><g clip-path="url(#79fef7c60a)"><g clip-path="url(#b714fd5af6)"><path fill="#004225" d="M 208.832031 232.410156 L 208.832031 266.082031 L 175.15625 266.082031 L 175.15625 232.410156 Z M 208.832031 232.410156 " fill-opacity="1" fill-rule="nonzero"/></g></g></svg>